# xmcd CD database file
#
# Track frame offsets:
#	150
#	19556
#	54665
#	73270
#	97081
#	128814
#	154582
#	176315
#	194420
#	225837
#
# Disc length: 3573 seconds
#
# Revision: 0
# Processed by: cddbd v1.5.1PL2 Copyright (c) Steve Scherf et al.
# Submitted via: CDex 1.51
#
DISCID=7b0df30a
DTITLE=George Benson - Live best of
DYEAR=2005
DGENRE=Jazz
TTITLE0=Turn Your Love Around
TTITLE1=This Masquerade
TTITLE2=Breezin'
TTITLE3=Love X Love
TTITLE4=Deeper Than You Think
TTITLE5=The Ghetto
TTITLE6=Never Give Up On a Good Thing
TTITLE7=Hipping the Hop
TTITLE8=Give Me the Night
TTITLE9=On Broadway
EXTD=YEAR: 2005
EXTT0=
EXTT1=
EXTT2=
EXTT3=
EXTT4=
EXTT5=
EXTT6=
EXTT7=
EXTT8=
EXTT9=
PLAYORDER=
